<svg width="796" height="611" viewBox="0 0 796 611" fill="none" xmlns="http://www.w3.org/2000/svg">
<g clip-path="url(#clip0_203_34)">
<path d="M790.103 354.177H182.325C180.762 354.176 179.263 353.582 178.157 352.527C177.052 351.472 176.43 350.041 176.428 348.549V5.62782C176.43 4.13573 177.052 2.70521 178.157 1.65015C179.263 0.595079 180.762 0.00162883 182.325 0H790.103C791.666 0.00162884 793.165 0.595082 794.271 1.65015C795.376 2.70522 795.998 4.13573 796 5.62782V348.549C795.998 350.041 795.376 351.472 794.271 352.527C793.165 353.582 791.666 354.176 790.103 354.177ZM182.325 2.25112C181.387 2.2521 180.488 2.60817 179.824 3.24121C179.161 3.87425 178.788 4.73256 178.787 5.62782V348.549C178.788 349.445 179.161 350.303 179.824 350.936C180.488 351.569 181.387 351.925 182.325 351.926H790.103C791.041 351.925 791.94 351.569 792.604 350.936C793.267 350.303 793.64 349.445 793.641 348.549V5.62782C793.64 4.73256 793.267 3.87426 792.604 3.24122C791.94 2.60818 791.041 2.2521 790.103 2.25112H182.325Z" fill="black"/>
<path d="M427.629 27.3873C426.402 27.4069 425.233 27.8856 424.373 28.7203C423.513 29.5549 423.031 30.6785 423.031 31.8491C423.031 33.0196 423.513 34.1433 424.373 34.9779C425.233 35.8126 426.402 36.2912 427.629 36.3108H544.849C546.086 36.3283 547.28 35.8768 548.17 35.0554C549.059 34.234 549.571 33.1096 549.593 31.9287C549.615 30.7478 549.146 29.6067 548.288 28.7555C547.43 27.9043 546.253 27.4124 545.016 27.3876L545.002 27.3873C544.951 27.3865 544.9 27.3865 544.849 27.3873H427.629Z" fill="#495D44"/>
<path d="M571.431 26.1448C571.259 26.3095 571.162 26.5328 571.162 26.7656C571.162 26.9985 571.259 27.2218 571.431 27.3864L575.381 31.1555H565.642C565.399 31.1562 565.165 31.249 564.993 31.4136C564.821 31.5782 564.725 31.8011 564.725 32.0335C564.725 32.2659 564.821 32.4888 564.993 32.6534C565.165 32.818 565.399 32.9108 565.642 32.9115H575.381L571.431 36.6806C571.346 36.7621 571.278 36.8589 571.232 36.9654C571.186 37.0719 571.162 37.1861 571.162 37.3014C571.162 37.4167 571.186 37.5308 571.232 37.6374C571.278 37.7439 571.346 37.8407 571.431 37.9222C571.517 38.0037 571.618 38.0684 571.73 38.1125C571.841 38.1567 571.961 38.1794 572.082 38.1794C572.203 38.1794 572.322 38.1567 572.434 38.1125C572.546 38.0684 572.647 38.0038 572.732 37.9222L578.252 32.6544C578.425 32.4897 578.522 32.2664 578.522 32.0335C578.522 31.8007 578.425 31.5774 578.252 31.4127L572.732 26.1448C572.647 26.0633 572.546 25.9986 572.434 25.9545C572.322 25.9104 572.203 25.8877 572.082 25.8877C571.961 25.8877 571.841 25.9104 571.73 25.9545C571.618 25.9986 571.517 26.0633 571.431 26.1448Z" fill="#E6E6E6"/>
<path d="M400.997 26.1449C401.169 26.3095 401.266 26.5328 401.266 26.7656C401.266 26.9985 401.169 27.2218 400.997 27.3864L397.047 31.1556H406.786C406.907 31.1551 407.027 31.1774 407.139 31.2213C407.251 31.2652 407.353 31.3297 407.438 31.4111C407.524 31.4926 407.592 31.5894 407.639 31.696C407.685 31.8027 407.709 31.917 407.709 32.0325C407.71 32.148 407.686 32.2624 407.64 32.3691C407.593 32.4759 407.526 32.5728 407.44 32.6545C407.354 32.7361 407.253 32.8009 407.141 32.845C407.029 32.8891 406.909 32.9117 406.788 32.9115H397.047L400.997 36.6806C401.082 36.7621 401.15 36.8589 401.196 36.9654C401.242 37.0719 401.266 37.1861 401.266 37.3014C401.266 37.4167 401.242 37.5309 401.196 37.6374C401.15 37.7439 401.082 37.8407 400.997 37.9222C400.911 38.0038 400.81 38.0684 400.698 38.1125C400.587 38.1567 400.467 38.1794 400.346 38.1794C400.225 38.1794 400.106 38.1567 399.994 38.1126C399.883 38.0684 399.781 38.0038 399.696 37.9222L394.176 32.6544C394.003 32.4897 393.906 32.2664 393.906 32.0336C393.906 31.8007 394.003 31.5774 394.176 31.4127L399.696 26.1449C399.868 25.9802 400.102 25.8877 400.346 25.8877C400.59 25.8877 400.824 25.9802 400.997 26.1449Z" fill="#E6E6E6"/>
<path d="M176.076 373.066C170.747 373.066 165.537 371.558 161.105 368.732C156.674 365.906 153.22 361.89 151.181 357.191C149.141 352.491 148.607 347.321 149.647 342.332C150.687 337.343 153.253 332.761 157.022 329.164C160.791 325.568 165.592 323.118 170.819 322.126C176.046 321.134 181.465 321.643 186.389 323.589C191.312 325.536 195.521 328.832 198.482 333.061C201.443 337.291 203.023 342.263 203.023 347.349C203.023 354.17 200.184 360.711 195.131 365.534C190.077 370.357 183.223 373.066 176.076 373.066Z" fill="black"/>
<path d="M186.709 344.812H178.734V337.202C178.734 336.529 178.454 335.884 177.956 335.408C177.457 334.932 176.781 334.665 176.076 334.665C175.371 334.665 174.695 334.932 174.197 335.408C173.698 335.884 173.418 336.529 173.418 337.202V344.812H165.444C164.739 344.812 164.062 345.08 163.564 345.556C163.065 346.031 162.785 346.676 162.785 347.349C162.785 348.022 163.065 348.667 163.564 349.143C164.062 349.619 164.739 349.886 165.444 349.886H173.418V357.497C173.418 358.17 173.698 358.815 174.197 359.291C174.695 359.766 175.371 360.034 176.076 360.034C176.781 360.034 177.457 359.766 177.956 359.291C178.454 358.815 178.734 358.17 178.734 357.497V349.886H186.709C187.414 349.886 188.09 349.619 188.588 349.143C189.087 348.667 189.367 348.022 189.367 347.349C189.367 346.676 189.087 346.031 188.588 345.556C188.09 345.08 187.414 344.812 186.709 344.812Z" fill="white"/>
<path d="M306.554 73.0693H225.569V125.596H306.554V73.0693Z" fill="#F1F1F1"/>
<path d="M416.63 73.0693H335.646V125.596H416.63V73.0693Z" fill="#F1F1F1"/>
<path d="M526.706 73.0693H445.722V125.596H526.706V73.0693Z" fill="#F1F1F1"/>
<path d="M636.783 73.0693H555.798V125.596H636.783V73.0693Z" fill="#F1F1F1"/>
<path d="M746.859 73.0693H665.874V125.596H746.859V73.0693Z" fill="#F1F1F1"/>
<path d="M306.851 165.366H225.866V217.892H306.851V165.366Z" fill="#F1F1F1"/>
<path d="M416.927 165.366H335.942V217.892H416.927V165.366Z" fill="#F1F1F1"/>
<path d="M527.003 165.366H446.019V217.892H527.003V165.366Z" fill="#F1F1F1"/>
<path d="M637.08 165.366H556.095V217.892H637.08V165.366Z" fill="#F1F1F1"/>
<path d="M747.156 165.366H666.171V217.892H747.156V165.366Z" fill="#F1F1F1"/>
<path d="M307.148 257.662H226.163V310.188H307.148V257.662Z" fill="#F1F1F1"/>
<path d="M417.224 257.662H336.239V310.188H417.224V257.662Z" fill="#F1F1F1"/>
<path d="M527.3 257.662H446.316V310.188H527.3V257.662Z" fill="#F1F1F1"/>
<path d="M637.376 257.662H556.392V310.188H637.376V257.662Z" fill="#F1F1F1"/>
<path d="M747.453 257.662H666.468V310.188H747.453V257.662Z" fill="#F1F1F1"/>
<path d="M462.53 99.333C468.175 99.333 472.751 94.9656 472.751 89.5781C472.751 84.1907 468.175 79.8232 462.53 79.8232C456.885 79.8232 452.309 84.1907 452.309 89.5781C452.309 94.9656 456.885 99.333 462.53 99.333Z" fill="#7CABB5"/>
<path d="M350.881 191.629C356.526 191.629 361.103 187.261 361.103 181.874C361.103 176.487 356.526 172.119 350.881 172.119C345.236 172.119 340.66 176.487 340.66 181.874C340.66 187.261 345.236 191.629 350.881 191.629Z" fill="#7CABB5"/>
<path d="M462.53 283.925C468.175 283.925 472.751 279.557 472.751 274.17C472.751 268.782 468.175 264.415 462.53 264.415C456.885 264.415 452.309 268.782 452.309 274.17C452.309 279.557 456.885 283.925 462.53 283.925Z" fill="#7CABB5"/>
<path d="M574.965 191.629C580.61 191.629 585.186 187.261 585.186 181.874C585.186 176.487 580.61 172.119 574.965 172.119C569.32 172.119 564.744 176.487 564.744 181.874C564.744 187.261 569.32 191.629 574.965 191.629Z" fill="#495D44"/>
<path d="M684.255 191.629C689.9 191.629 694.476 187.261 694.476 181.874C694.476 176.487 689.9 172.119 684.255 172.119C678.61 172.119 674.034 176.487 674.034 181.874C674.034 187.261 678.61 191.629 684.255 191.629Z" fill="#495D44"/>
<path d="M350.881 283.925C356.526 283.925 361.103 279.557 361.103 274.17C361.103 268.782 356.526 264.415 350.881 264.415C345.236 264.415 340.66 268.782 340.66 274.17C340.66 279.557 345.236 283.925 350.881 283.925Z" fill="#495D44"/>
<path d="M82.8846 367.341C93.3695 367.341 101.869 359.229 101.869 349.223C101.869 339.216 93.3695 331.104 82.8846 331.104C72.3997 331.104 63.9 339.216 63.9 349.223C63.9 359.229 72.3997 367.341 82.8846 367.341Z" fill="#FFB8B8"/>
<path d="M76.0302 456.431C75.7911 456.431 75.551 456.421 75.3097 456.401C74.1157 456.306 72.9563 455.971 71.9073 455.419C70.8584 454.866 69.9436 454.108 69.2229 453.195C68.5023 452.281 67.992 451.233 67.7255 450.118C67.4591 449.003 67.4425 447.847 67.6768 446.726C67.7322 446.465 67.8018 446.208 67.8855 445.954L39.8658 414.327C38.9528 413.289 38.415 411.997 38.3322 410.644C38.2494 409.29 38.6261 407.947 39.4062 406.814L39.457 406.755L64.6782 383.021C66.0554 381.727 67.9146 381.008 69.8473 381.022C71.7799 381.035 73.6277 381.781 74.9847 383.094C76.3416 384.408 77.0966 386.182 77.0836 388.026C77.0707 389.87 76.2909 391.634 74.9156 392.93C74.884 392.96 74.8521 392.99 74.8199 393.019L56.5531 409.592L76.5507 440.223C76.9295 440.242 77.3064 440.286 77.6786 440.356C79.7472 440.75 81.5885 441.863 82.8451 443.48C84.1016 445.097 84.6837 447.102 84.4783 449.106C84.2728 451.109 83.2945 452.968 81.7334 454.322C80.1722 455.676 78.1396 456.428 76.0302 456.431Z" fill="#FFB8B8"/>
<path d="M114.152 601.383H123.629L128.137 566.5L114.15 566.501L114.152 601.383Z" fill="#FFB8B8"/>
<path d="M111.735 598.43L130.397 598.43C131.959 598.43 133.506 598.723 134.949 599.293C136.392 599.864 137.703 600.7 138.808 601.754C139.912 602.808 140.788 604.059 141.386 605.436C141.983 606.813 142.291 608.289 142.291 609.779V610.149L111.736 610.15L111.735 598.43Z" fill="black"/>
<path d="M19.9631 588.879L28.1054 593.506L50.6797 565.735L38.6621 558.906L19.9631 588.879Z" fill="#FFB8B8"/>
<path d="M19.4691 585.162L35.5042 594.274C38.2143 595.814 40.1731 598.318 40.9484 601.236C41.7238 604.154 41.2528 607.246 39.6392 609.833L39.4412 610.15L13.187 595.232L19.4691 585.162Z" fill="black"/>
<path d="M125.865 589.062H115.253C114.394 589.064 113.565 588.761 112.926 588.213C112.287 587.664 111.884 586.909 111.795 586.094L101.097 490.124C101.07 489.882 100.96 489.656 100.785 489.48C100.61 489.303 100.379 489.187 100.127 489.148C99.8762 489.11 99.6185 489.151 99.3943 489.266C99.1702 489.382 98.9919 489.564 98.887 489.785L79.588 530.569L45.4201 583.741C44.9778 584.423 44.2931 584.929 43.4913 585.169C42.6896 585.408 41.8243 585.363 41.054 585.043L27.4042 579.312C26.9529 579.122 26.549 578.843 26.2192 578.493C25.8895 578.143 25.6414 577.731 25.4915 577.282C25.3416 576.834 25.2933 576.36 25.3498 575.893C25.4063 575.425 25.5662 574.974 25.8191 574.57L57.2288 524.378L66.8619 482.088C63.8321 463.748 76.8205 436.482 76.9522 436.208L77.0166 436.075L112.794 422.729L112.973 422.939C127.082 467.128 135.68 514.683 129.332 586.021C129.254 586.849 128.855 587.619 128.214 588.181C127.573 588.743 126.735 589.058 125.865 589.062Z" fill="black"/>
<path d="M75.5753 440.544L75.4087 440.209C75.329 440.049 67.3738 424.037 61.2413 406.922C60.0627 403.613 59.6172 400.105 59.9329 396.623C60.2486 393.141 61.3187 389.759 63.0754 386.691C64.8549 383.592 67.2894 380.88 70.2246 378.726C73.1599 376.572 76.532 375.023 80.1272 374.177C86.3687 372.75 92.9398 373.509 98.6436 376.318C104.347 379.127 108.804 383.797 111.202 389.479C116.066 401.088 114.516 413.48 113.057 423.224L113.028 423.42L112.842 423.505L75.5753 440.544Z" fill="#E4E4E4"/>
<path d="M105.903 338.988H75.7576V326.448C82.3741 323.939 88.8488 321.806 92.7627 326.448C96.2477 326.448 99.5899 327.769 102.054 330.121C104.518 332.473 105.903 335.662 105.903 338.988Z" fill="black"/>
<path d="M74.0886 324.234C56.0671 324.234 51.0229 345.793 51.0229 357.955C51.0229 364.737 54.237 367.163 59.2877 367.984L61.0714 358.905L65.249 368.375C66.6677 368.382 68.1582 368.355 69.7033 368.328L71.1198 365.545L74.2784 368.278C86.9291 368.296 97.1539 370.056 97.1539 357.955C97.1539 345.793 92.7302 324.234 74.0886 324.234Z" fill="black"/>
<path d="M154.193 348.363C154.307 348.563 154.413 348.769 154.51 348.981C154.995 350.026 155.243 351.158 155.238 352.301C155.233 353.445 154.974 354.574 154.48 355.616C153.985 356.657 153.266 357.587 152.369 358.345C151.471 359.103 150.416 359.671 149.273 360.012C149.007 360.091 148.736 360.156 148.463 360.207L132.815 398.838C132.298 400.1 131.367 401.17 130.163 401.888C128.958 402.606 127.543 402.935 126.127 402.825L126.048 402.81L92.1317 393.066C90.2802 392.534 88.726 391.322 87.8111 389.696C86.8961 388.07 86.6953 386.164 87.2528 384.398C87.8103 382.631 89.0805 381.147 90.7839 380.274C92.4873 379.401 94.4844 379.209 96.3359 379.741C96.3782 379.754 96.4204 379.766 96.4625 379.779L120.46 387.132L139.039 355.698C138.875 355.371 138.735 355.034 138.62 354.689C137.991 352.768 138.132 350.692 139.016 348.865C139.901 347.037 141.465 345.588 143.406 344.8C145.347 344.011 147.525 343.939 149.519 344.598C151.512 345.256 153.178 346.598 154.193 348.363Z" fill="#FFB8B8"/>
<path d="M158.126 611H0.819304C0.602011 611 0.393617 610.918 0.239968 610.771C0.0863187 610.625 0 610.426 0 610.218C0 610.011 0.0863187 609.812 0.239968 609.666C0.393617 609.519 0.602011 609.437 0.819304 609.437H158.126C158.343 609.437 158.551 609.519 158.705 609.666C158.859 609.812 158.945 610.011 158.945 610.218C158.945 610.426 158.859 610.625 158.705 610.771C158.551 610.918 158.343 611 158.126 611Z" fill="#CCCCCC"/>
</g>
<defs>
<clipPath id="clip0_203_34">
<rect width="796" height="611" fill="white"/>
</clipPath>
</defs>
</svg>
